<?xml version="1.0" encoding="utf-8"?>
<svg version="1.1" x="0px" y="0px" viewBox="2.361 7.084 153.778 37.19" style="enable-background:new 0 0 750 500;" xmlns="http://www.w3.org/2000/svg">
  <defs/>
  <g id="BACKGROUND" style="" transform="matrix(0.214483, 0, 0, 0.096813, 0, 0.590319)"/>
  <g id="OBJECTS" transform="matrix(1, 0, 0, 1, -259.740234, -384.887848)">
    <g>
      <g>
        <g transform="matrix(1, 0, 0, 1, 82.054306, -3.541911)">
          <path style="fill:#FFFFFF;" d="M304.581,423.675c-0.302-1.021-1.246-1.767-2.365-1.767c-0.424,0-0.822,0.107-1.17,0.295&#10;&#9;&#9;&#9;&#9;&#9;c-0.326-0.162-0.692-0.256-1.08-0.256c-0.921,0-1.723,0.513-2.134,1.269c-0.37-0.536-0.987-0.889-1.688-0.889&#10;&#9;&#9;&#9;&#9;&#9;c-0.96,0-1.759,0.662-1.982,1.553c-0.111-0.022-0.226-0.035-0.343-0.035c-0.233,0-0.454,0.048-0.658,0.129&#10;&#9;&#9;&#9;&#9;&#9;c-0.037-0.124-0.088-0.241-0.156-0.347c-0.058-0.272-0.167-0.526-0.315-0.751c-0.006-0.048-0.005-0.097-0.014-0.144&#10;&#9;&#9;&#9;&#9;&#9;c0.275-0.374,0.439-0.833,0.439-1.332c0-0.612-0.245-1.167-0.641-1.573v-0.659c0.514-0.341,0.893-0.868,1.047-1.484&#10;&#9;&#9;&#9;&#9;&#9;c0.158,0.084,0.335,0.137,0.526,0.137c0.293,0,0.557-0.115,0.757-0.298c0.393,0.639,1.098,1.067,1.903,1.067&#10;&#9;&#9;&#9;&#9;&#9;c0.607,0,1.157-0.243,1.56-0.636c0.223,0.084,0.462,0.136,0.715,0.136c0.69,0,1.29-0.35,1.656-0.876&#10;&#9;&#9;&#9;&#9;&#9;c0.194,0.037,0.398,0.062,0.615,0.062c1.065,0,1.929-0.487,1.929-1.088c0-0.471-0.534-0.869-1.277-1.02&#10;&#9;&#9;&#9;&#9;&#9;c0-0.015,0.003-0.029,0.003-0.045c0-0.063-0.004-0.125-0.009-0.186c0.236-0.242,0.383-0.573,0.383-0.939&#10;&#9;&#9;&#9;&#9;&#9;c0-0.408-0.186-0.769-0.472-1.016v-0.122h-0.162c-0.207-0.129-0.449-0.207-0.711-0.207c-0.262,0-0.504,0.078-0.71,0.207h-1.149&#10;&#9;&#9;&#9;&#9;&#9;c-0.276-0.214-0.619-0.346-0.995-0.346s-0.719,0.132-0.995,0.346h-2.808c-0.306-0.568-0.898-0.958-1.588-0.958&#10;&#9;&#9;&#9;&#9;&#9;c-0.014,0-0.026,0.004-0.04,0.004c-0.007-0.301-0.069-0.589-0.177-0.853v-0.115c0.304-0.352,0.495-0.806,0.495-1.308&#10;&#9;&#9;&#9;&#9;&#9;s-0.191-0.956-0.495-1.308v-0.924c0.322-0.35,0.523-0.813,0.523-1.327c0-0.125-0.014-0.246-0.037-0.364c0.002,0,0.004,0,0.006,0&#10;&#9;&#9;&#9;&#9;&#9;c0.046,0,0.091-0.004,0.136-0.007c0.314,0.226,0.696,0.363,1.113,0.363c0.635,0,1.194-0.314,1.541-0.791&#10;&#9;&#9;&#9;&#9;&#9;c0.344,0.364,0.828,0.594,1.368,0.594c0.13,0,0.258-0.013,0.381-0.039c0.332,0.189,0.714,0.299,1.123,0.299&#10;&#9;&#9;&#9;&#9;&#9;c0.517,0,0.993-0.175,1.375-0.466c0.269,0.1,0.559,0.158,0.863,0.158c0.946,0,1.769-0.53,2.188-1.309&#10;&#9;&#9;&#9;&#9;&#9;c0.097,0.025,0.197,0.042,0.301,0.042c0.672,0,1.216-0.545,1.216-1.216c0-0.287-0.104-0.548-0.27-0.756&#10;&#9;&#9;&#9;&#9;&#9;c0.475-0.248,0.803-0.739,0.803-1.313c0-0.821-0.665-1.486-1.486-1.486c-0.475,0-0.892,0.227-1.164,0.573&#10;&#9;&#9;&#9;&#9;&#9;c-0.358-0.878-1.219-1.497-2.226-1.497c-0.391,0-0.759,0.095-1.086,0.261c-0.138,0.042-0.268,0.098-0.391,0.167&#10;&#9;&#9;&#9;&#9;&#9;c-0.024-0.014-0.048-0.031-0.073-0.044c-0.408-0.425-0.981-0.691-1.617-0.691c-0.699,0-1.323,0.32-1.734,0.82&#10;&#9;&#9;&#9;&#9;&#9;c-0.342,0.01-0.654,0.132-0.907,0.328c-0.282,0.012-0.536,0.126-0.724,0.311c-0.028-0.009-0.055-0.018-0.084-0.026&#10;&#9;&#9;&#9;&#9;&#9;c-0.301-0.338-0.728-0.555-1.209-0.581c-0.452-0.685-1.228-1.137-2.11-1.137c-1.043,0-1.939,0.632-2.325,1.534&#10;&#9;&#9;&#9;&#9;&#9;c-1.11,0.007-2.007,0.907-2.007,2.019c0,0.946,0.654,1.735,1.532,1.954c-0.552,0.351-0.92,0.964-0.92,1.666&#10;&#9;&#9;&#9;&#9;&#9;c0,0.907,0.614,1.663,1.446,1.896c0.068,0.087,0.141,0.169,0.22,0.246c-0.031,0.048-0.062,0.097-0.089,0.147&#10;&#9;&#9;&#9;&#9;&#9;c-0.687,0.233-1.185,0.876-1.185,1.642c0,0.454,0.178,0.863,0.462,1.173c-0.469,0.334-0.813,0.831-0.951,1.408&#10;&#9;&#9;&#9;&#9;&#9;c-0.871,0.111-1.53,0.619-1.53,1.231c0,0.693,0.844,1.255,1.885,1.255c0.164,0,0.321-0.018,0.474-0.045&#10;&#9;&#9;&#9;&#9;&#9;c0.077,0.062,0.157,0.12,0.241,0.173c-0.489,0.409-0.8,1.024-0.8,1.711c0,0.991,0.647,1.831,1.541,2.122&#10;&#9;&#9;&#9;&#9;&#9;c-0.71,0.323-1.206,1.035-1.206,1.865c0,0.304,0.07,0.59,0.188,0.849c-0.309,0.41-0.495,0.919-0.495,1.473&#10;&#9;&#9;&#9;&#9;&#9;c0,0.859,0.443,1.614,1.112,2.051c-0.242,0.341-0.388,0.755-0.388,1.205c0,0.243,0.05,0.474,0.126,0.691&#10;&#9;&#9;&#9;&#9;&#9;c-0.018,0.096-0.03,0.194-0.03,0.294c0,0.861,0.698,1.559,1.559,1.559c0.441,0,0.838-0.185,1.122-0.48h0.25&#10;&#9;&#9;&#9;&#9;&#9;c0.243,0.197,0.548,0.32,0.884,0.32c0.337,0,0.642-0.123,0.884-0.32h1.007c0.401,0.761,1.199,1.281,2.119,1.281&#10;&#9;&#9;&#9;&#9;&#9;c0.703,0,1.333-0.304,1.771-0.786c0.053,0.004,0.103,0.016,0.157,0.016c0.213,0,0.414-0.042,0.607-0.101&#10;&#9;&#9;&#9;&#9;&#9;c0.386,0.371,0.909,0.6,1.486,0.6c0.573,0,1.092-0.226,1.477-0.592c0.052,0.005,0.102,0.015,0.155,0.015&#10;&#9;&#9;&#9;&#9;&#9;c0.079,0,0.154-0.012,0.23-0.023c0.319,0.232,0.708,0.373,1.133,0.373c0.475,0,0.905-0.178,1.242-0.462&#10;&#9;&#9;&#9;&#9;&#9;c1.29-0.025,2.329-1.076,2.329-2.372C306.007,424.877,305.42,424.041,304.581,423.675z"/>
          <path style="fill:#FFFFFF;" d="M302.303,408.42c0,0.242,0.275,0.438,0.614,0.438c0.339,0,0.614-0.196,0.614-0.438&#10;&#9;&#9;&#9;&#9;&#9;c0-0.242-0.275-0.438-0.614-0.438C302.578,407.982,302.303,408.178,302.303,408.42z"/>
          <ellipse style="fill:#FFFFFF;" cx="303.575" cy="407.061" rx="0.394" ry="0.263"/>
        </g>
        <g transform="matrix(1, 0, 0, 1, -118.063751, -4.132231)">
          <ellipse style="fill:#FFFFFF;" cx="422.413" cy="430.042" rx="0.673" ry="0.409"/>
          <path style="fill:#FFFFFF;" d="M425.115,400.471c0-0.471-0.484-0.852-1.08-0.852c-0.258,0-0.493,0.074-0.679,0.194&#10;&#9;&#9;&#9;&#9;&#9;c-0.259-0.123-0.547-0.194-0.853-0.194c-0.021,0-0.04,0.005-0.061,0.006c-0.016,0-0.031-0.002-0.046-0.002&#10;&#9;&#9;&#9;&#9;&#9;c-0.655,0-1.244,0.279-1.658,0.723c-0.831,0.322-1.42,1.127-1.42,2.072c0,0.086,0.006,0.17,0.016,0.254&#10;&#9;&#9;&#9;&#9;&#9;c-0.001,0.024-0.007,0.046-0.007,0.07c0,0.715,0.357,1.344,0.899,1.727c-0.046,0.143-0.077,0.293-0.077,0.451&#10;&#9;&#9;&#9;&#9;&#9;c0,0.092,0.011,0.182,0.027,0.269c-0.414,0.388-0.676,0.935-0.676,1.547c0,0.262,0.054,0.509,0.14,0.741&#10;&#9;&#9;&#9;&#9;&#9;c0,0.013-0.002,0.026-0.002,0.039c0,0.581,0.221,1.108,0.582,1.508c0.042,0.1,0.093,0.195,0.153,0.285&#10;&#9;&#9;&#9;&#9;&#9;c-0.033,0.12-0.056,0.245-0.056,0.375c0,0.223,0.055,0.432,0.145,0.62c-0.688,0.461-1.141,1.245-1.141,2.136&#10;&#9;&#9;&#9;&#9;&#9;c0,0.75,0.323,1.422,0.835,1.892c0.028,0.12,0.064,0.237,0.112,0.348c-0.015,0.09-0.027,0.181-0.028,0.275&#10;&#9;&#9;&#9;&#9;&#9;c-0.412,0.457-0.664,1.061-0.664,1.725c0,0.589,0.2,1.13,0.532,1.565c0.029,0.135,0.069,0.265,0.122,0.389&#10;&#9;&#9;&#9;&#9;&#9;c-0.015,0.095-0.024,0.192-0.027,0.291c-0.084,0.24-0.132,0.497-0.132,0.766c0,0.099,0.008,0.195,0.02,0.291&#10;&#9;&#9;&#9;&#9;&#9;c-0.026,0.104-0.048,0.21-0.06,0.319c-0.13,0.271-0.209,0.571-0.209,0.892c0,0.335,0.087,0.648,0.229,0.928&#10;&#9;&#9;&#9;&#9;&#9;c-0.01,0.086-0.017,0.174-0.017,0.263c0,0.551,0.199,1.055,0.528,1.446c-0.015,0.031-0.024,0.065-0.037,0.096&#10;&#9;&#9;&#9;&#9;&#9;c-0.505,0.188-0.857,0.595-0.857,1.07c0,0.476,0.353,0.883,0.858,1.071c-0.505,0.141-0.858,0.447-0.858,0.803&#10;&#9;&#9;&#9;&#9;&#9;c0,0.369,0.376,0.685,0.911,0.819c-0.512,0.034-0.911,0.271-0.911,0.56c0,0.313,0.464,0.567,1.037,0.567&#10;&#9;&#9;&#9;&#9;&#9;c0.573,0,1.037-0.254,1.037-0.567c0-0.214-0.22-0.398-0.54-0.495c0.191-0.004,0.374-0.028,0.54-0.072&#10;&#9;&#9;&#9;&#9;&#9;c0.335,0.368,0.815,0.6,1.353,0.6c1.019,0,1.845-0.826,1.845-1.845c0-0.361-0.108-0.696-0.287-0.98&#10;&#9;&#9;&#9;&#9;&#9;c0.093-0.227,0.146-0.474,0.146-0.734c0-0.381-0.114-0.733-0.304-1.032c-0.021-0.082-0.043-0.164-0.075-0.241v-0.371&#10;&#9;&#9;&#9;&#9;&#9;c0.071-0.219,0.111-0.452,0.111-0.695c0-0.007-0.001-0.013-0.001-0.02c0.166-0.313,0.261-0.669,0.261-1.048&#10;&#9;&#9;&#9;&#9;&#9;c0-0.31-0.063-0.605-0.177-0.874c-0.001-0.015-0.001-0.029-0.002-0.044c0.026-0.081,0.048-0.164,0.064-0.248&#10;&#9;&#9;&#9;&#9;&#9;c0.189-0.342,0.297-0.734,0.297-1.152c0-0.276-0.049-0.539-0.135-0.786c0.178-0.325,0.279-0.697,0.279-1.093&#10;&#9;&#9;&#9;&#9;&#9;c0-0.621-0.249-1.182-0.651-1.593c-0.015-0.03-0.029-0.061-0.046-0.091v-2.198c0.254-0.377,0.403-0.832,0.403-1.321&#10;&#9;&#9;&#9;&#9;&#9;c0-0.314-0.063-0.612-0.173-0.886c0.134-0.275,0.215-0.58,0.215-0.906c0-0.482-0.17-0.921-0.445-1.274v-0.268&#10;&#9;&#9;&#9;&#9;&#9;c0.343-0.427,0.549-0.969,0.549-1.559c0-0.59-0.206-1.132-0.549-1.559v-0.314c0.032-0.141,0.052-0.287,0.052-0.438&#10;&#9;&#9;&#9;&#9;&#9;c0-0.043-0.01-0.084-0.013-0.127c0.015-0.092,0.028-0.185,0.028-0.281c0-0.159-0.028-0.311-0.068-0.458v-0.917&#10;&#9;&#9;&#9;&#9;&#9;c0.159-0.31,0.25-0.66,0.25-1.032c0-0.239-0.038-0.468-0.106-0.684C424.891,401.064,425.115,400.789,425.115,400.471z"/>
          <path style="fill:#FFFFFF;" d="M426.374,398.89c-0.109,0-0.197,0.163-0.197,0.364s0.088,0.364,0.197,0.364&#10;&#9;&#9;&#9;&#9;&#9;c0.109,0,0.197-0.163,0.197-0.364S426.483,398.89,426.374,398.89z"/>
        </g>
        <g transform="matrix(1, 0, 0, 1, -261.51123, -4.132231)">
          <circle style="fill:#FFFFFF;" cx="584.606" cy="419.689" r="0.263"/>
          <path style="fill:#FFFFFF;" d="M596.814,401.673c-0.375,0-0.679,0.373-0.679,0.833c0,0.012,0.003,0.024,0.003,0.036&#10;&#9;&#9;&#9;&#9;&#9;c-0.018,0.004-0.037,0.007-0.055,0.011c-0.089-0.215-0.29-0.388-0.552-0.472c0.025-0.117,0.04-0.237,0.04-0.362&#10;&#9;&#9;&#9;&#9;&#9;c0-0.255-0.057-0.497-0.154-0.716v-0.132h-0.072c-0.181-0.327-0.458-0.59-0.798-0.749c-0.318-0.78-1.083-1.331-1.977-1.331&#10;&#9;&#9;&#9;&#9;&#9;c-1.18,0-2.137,0.957-2.137,2.137c0,0.615,0.264,1.166,0.68,1.556c-0.225,0.308-0.362,0.685-0.362,1.096&#10;&#9;&#9;&#9;&#9;&#9;c0,0.424,0.147,0.81,0.385,1.124c-0.001,0.027-0.008,0.053-0.008,0.081c0,0.167,0.026,0.327,0.064,0.483&#10;&#9;&#9;&#9;&#9;&#9;c-0.335,0.433-0.537,0.974-0.537,1.564c0,0.464,0.126,0.898,0.342,1.274c0.107,0.22,0.247,0.421,0.416,0.594&#10;&#9;&#9;&#9;&#9;&#9;c-0.522,0.399-0.861,1.027-0.861,1.736c0,0.392,0.104,0.758,0.285,1.076c0.068,0.163,0.154,0.316,0.253,0.459&#10;&#9;&#9;&#9;&#9;&#9;c0.046,0.119,0.102,0.232,0.166,0.341c-0.089,0.261-0.139,0.54-0.139,0.83c0,0.093,0.005,0.185,0.015,0.276&#10;&#9;&#9;&#9;&#9;&#9;c-0.158-0.126-0.334-0.227-0.527-0.298c-0.092-0.316-0.244-0.605-0.444-0.856c0.001-0.033,0.01-0.064,0.01-0.097&#10;&#9;&#9;&#9;&#9;&#9;c0-1.097-0.863-1.985-1.947-2.04c0.024-0.117,0.037-0.237,0.037-0.361c0-0.644-0.345-1.202-0.857-1.515&#10;&#9;&#9;&#9;&#9;&#9;c-0.219-0.307-0.534-0.536-0.9-0.654c-0.086-0.112-0.183-0.216-0.287-0.312c-0.018-0.419-0.22-0.786-0.527-1.03&#10;&#9;&#9;&#9;&#9;&#9;c-0.092-0.735-0.588-1.339-1.264-1.583c0.069-0.201,0.115-0.414,0.115-0.639c0-0.747-0.419-1.389-1.031-1.725&#10;&#9;&#9;&#9;&#9;&#9;c0.002-0.041,0.006-0.082,0.006-0.124c0-1.223-0.991-2.214-2.214-2.214c-0.38,0-0.737,0.096-1.05,0.265&#10;&#9;&#9;&#9;&#9;&#9;c-0.037-0.002-0.073-0.005-0.111-0.005c-0.637,0-1.216,0.245-1.652,0.642h-0.31v0.341c-0.308,0.41-0.494,0.919-0.494,1.472&#10;&#9;&#9;&#9;&#9;&#9;c0,0.553,0.185,1.062,0.494,1.472v1.513c-0.602,0.417-0.997,1.111-0.997,1.899c0,0.787,0.395,1.482,0.997,1.899v0.551&#10;&#9;&#9;&#9;&#9;&#9;c-0.008,0.022-0.014,0.046-0.021,0.068c-0.132,0.233-0.214,0.498-0.214,0.785c0,0.054,0.011,0.104,0.016,0.157&#10;&#9;&#9;&#9;&#9;&#9;c-0.161,0.336-0.254,0.712-0.254,1.11c0,0.019,0.003,0.038,0.003,0.057c-0.132,0.278-0.211,0.585-0.211,0.912&#10;&#9;&#9;&#9;&#9;&#9;c0,0.369,0.102,0.71,0.266,1.013c-0.065,0.161-0.103,0.334-0.123,0.512c-0.169,0.331-0.266,0.704-0.266,1.101&#10;&#9;&#9;&#9;&#9;&#9;c0,0.457,0.129,0.884,0.349,1.249c-0.62,0.449-1.026,1.176-1.026,2.001c0,0.573,0.198,1.097,0.526,1.516&#10;&#9;&#9;&#9;&#9;&#9;c-0.214-0.04-0.441-0.065-0.681-0.065c-0.037,0-0.072,0.005-0.109,0.006c0.164-0.131,0.265-0.311,0.265-0.51&#10;&#9;&#9;&#9;&#9;&#9;c0-0.4-0.408-0.723-0.911-0.723c-0.503,0-0.911,0.324-0.911,0.723c0,0.305,0.239,0.565,0.576,0.671&#10;&#9;&#9;&#9;&#9;&#9;c-0.556,0.185-0.927,0.507-0.927,0.874c0,0.575,0.903,1.041,2.016,1.041c0.467,0,0.891-0.085,1.233-0.223&#10;&#9;&#9;&#9;&#9;&#9;c0.099,0.177,0.237,0.331,0.404,0.445v0.475c-0.821,0.395-1.39,1.232-1.39,2.204c0,1.351,1.095,2.447,2.447,2.447&#10;&#9;&#9;&#9;&#9;&#9;c0.614,0,1.174-0.228,1.604-0.602h0.092c0.288,0.332,0.708,0.547,1.182,0.547c0.868,0,1.571-0.703,1.571-1.571&#10;&#9;&#9;&#9;&#9;&#9;c0-0.447-0.189-0.848-0.488-1.134c0.042-0.167,0.07-0.338,0.07-0.517c0-0.3-0.063-0.584-0.175-0.843&#10;&#9;&#9;&#9;&#9;&#9;c0.453-0.465,0.733-1.099,0.733-1.799c0-0.925-0.489-1.735-1.22-2.19c0.065-0.158,0.102-0.331,0.102-0.513&#10;&#9;&#9;&#9;&#9;&#9;c0-0.018-0.003-0.035-0.004-0.053c0.435-0.078,0.766-0.457,0.766-0.915c0-0.407-0.262-0.749-0.625-0.876&#10;&#9;&#9;&#9;&#9;&#9;c0.001-0.022,0.005-0.042,0.005-0.064c0-0.101-0.009-0.2-0.021-0.297c0.579-0.41,0.959-1.083,0.959-1.847&#10;&#9;&#9;&#9;&#9;&#9;c0-0.094-0.008-0.186-0.019-0.277c0.005-0.062,0.009-0.124,0.009-0.186c0-0.731-0.33-1.384-0.849-1.82&#10;&#9;&#9;&#9;&#9;&#9;c0.212-0.273,0.344-0.612,0.344-0.984c0-0.327-0.099-0.63-0.266-0.884c0.038,0.01,0.075,0.02,0.114,0.028&#10;&#9;&#9;&#9;&#9;&#9;c0.089,0.453,0.337,0.845,0.677,1.13c-0.004,0.048-0.015,0.095-0.015,0.144c0,0.646,0.375,1.2,0.915,1.473&#10;&#9;&#9;&#9;&#9;&#9;c0.186,0.446,0.503,0.823,0.903,1.085c-0.102,0.226-0.161,0.474-0.161,0.738c0,0.901,0.663,1.642,1.526,1.776l0.445,0.856&#10;&#9;&#9;&#9;&#9;&#9;c-0.157,0.291-0.255,0.62-0.255,0.974c0,1.042,0.774,1.895,1.777,2.036c-0.017,0.093-0.029,0.187-0.029,0.285&#10;&#9;&#9;&#9;&#9;&#9;c0,0.218,0.048,0.424,0.127,0.613c-0.186,0.126-0.302,0.3-0.302,0.491c0,0.387,0.471,0.701,1.052,0.701&#10;&#9;&#9;&#9;&#9;&#9;c0.093,0,0.181-0.011,0.266-0.025l0.393,0.756c-0.121,0.266-0.193,0.56-0.193,0.871c0,1.033,0.743,1.89,1.723,2.074l0.112,0.215&#10;&#9;&#9;&#9;&#9;&#9;h0.669c0.392,0.478,0.979,0.789,1.646,0.789c1.18,0,2.136-0.956,2.136-2.136c0-0.616-0.264-1.166-0.681-1.556&#10;&#9;&#9;&#9;&#9;&#9;c0.126-0.271,0.204-0.567,0.223-0.881c0.211-0.346,0.335-0.751,0.335-1.186c0-0.124-0.013-0.245-0.032-0.364&#10;&#9;&#9;&#9;&#9;&#9;c0.184-0.334,0.288-0.718,0.288-1.126c0-0.781-0.383-1.471-0.971-1.897c0.18-0.35,0.284-0.746,0.284-1.167&#10;&#9;&#9;&#9;&#9;&#9;c0-0.365-0.078-0.711-0.216-1.025c0.007-0.071,0.011-0.143,0.011-0.216c0-0.448-0.132-0.864-0.358-1.215v-0.233&#10;&#9;&#9;&#9;&#9;&#9;c0.521-0.471,0.85-1.151,0.85-1.909c0-0.205-0.026-0.404-0.072-0.595c0.05-0.189,0.08-0.386,0.08-0.591&#10;&#9;&#9;&#9;&#9;&#9;c0-0.472-0.143-0.911-0.389-1.275c0.206-0.32,0.329-0.7,0.329-1.109c0-0.501-0.187-0.954-0.484-1.311&#10;&#9;&#9;&#9;&#9;&#9;c0.051-0.172,0.087-0.351,0.087-0.539c0-0.181-0.034-0.354-0.081-0.52c0.018-0.121,0.03-0.244,0.03-0.37&#10;&#9;&#9;&#9;&#9;&#9;c0-0.47-0.129-0.909-0.35-1.287v-0.722c0.05,0.003,0.098,0.007,0.149,0.007c0.75,0,1.359-0.285,1.359-0.636&#10;&#9;&#9;&#9;&#9;&#9;c0-0.129-0.083-0.249-0.225-0.35c0.456-0.072,0.795-0.339,0.795-0.659c0-0.098-0.033-0.19-0.089-0.274&#10;&#9;&#9;&#9;&#9;&#9;c0.055-0.12,0.089-0.257,0.089-0.406C597.493,402.046,597.189,401.673,596.814,401.673z M595.565,403.558&#10;&#9;&#9;&#9;&#9;&#9;c-0.051,0-0.099,0.004-0.149,0.007v-0.035c0.042-0.009,0.083-0.017,0.123-0.03c0.016,0.02,0.031,0.041,0.049,0.06&#10;&#9;&#9;&#9;&#9;&#9;C595.58,403.559,595.573,403.558,595.565,403.558z"/>
          <path style="fill:#FFFFFF;" d="M596.967,400.183c-0.29,0-0.526,0.137-0.526,0.307c0,0.169,0.235,0.307,0.526,0.307&#10;&#9;&#9;&#9;&#9;&#9;c0.291,0,0.526-0.137,0.526-0.307C597.493,400.32,597.258,400.183,596.967,400.183z"/>
          <path style="fill:#FFFFFF;" d="M598.545,399.263c-0.097,0-0.175,0.157-0.175,0.351c0,0.194,0.078,0.351,0.175,0.351&#10;&#9;&#9;&#9;&#9;&#9;c0.097,0,0.175-0.157,0.175-0.351C598.721,399.42,598.642,399.263,598.545,399.263z"/>
          <path style="fill:#FFFFFF;" d="M574.283,418.857c-0.157,0-0.285,0.128-0.285,0.285c0,0.157,0.128,0.285,0.285,0.285&#10;&#9;&#9;&#9;&#9;&#9;c0.157,0,0.285-0.128,0.285-0.285C574.568,418.984,574.44,418.857,574.283,418.857z"/>
          <path style="fill:#FFFFFF;" d="M574.93,417.826c0.2,0,0.362-0.162,0.362-0.362c0-0.2-0.162-0.362-0.362-0.362&#10;&#9;&#9;&#9;&#9;&#9;s-0.362,0.162-0.362,0.362C574.568,417.664,574.73,417.826,574.93,417.826z"/>
        </g>
        <g transform="matrix(1, 0, 0, 1, -233.938736, -4.034422)">
          <circle style="fill:#FFFFFF;" cx="584.606" cy="419.689" r="0.263"/>
          <path style="fill:#FFFFFF;" d="M596.814,401.673c-0.375,0-0.679,0.373-0.679,0.833c0,0.012,0.003,0.024,0.003,0.036&#10;&#9;&#9;&#9;&#9;&#9;c-0.018,0.004-0.037,0.007-0.055,0.011c-0.089-0.215-0.29-0.388-0.552-0.472c0.025-0.117,0.04-0.237,0.04-0.362&#10;&#9;&#9;&#9;&#9;&#9;c0-0.255-0.057-0.497-0.154-0.716v-0.132h-0.072c-0.181-0.327-0.458-0.59-0.798-0.749c-0.318-0.78-1.083-1.331-1.977-1.331&#10;&#9;&#9;&#9;&#9;&#9;c-1.18,0-2.137,0.957-2.137,2.137c0,0.615,0.264,1.166,0.68,1.556c-0.225,0.308-0.362,0.685-0.362,1.096&#10;&#9;&#9;&#9;&#9;&#9;c0,0.424,0.147,0.81,0.385,1.124c-0.001,0.027-0.008,0.053-0.008,0.081c0,0.167,0.026,0.327,0.064,0.483&#10;&#9;&#9;&#9;&#9;&#9;c-0.335,0.433-0.537,0.974-0.537,1.564c0,0.464,0.126,0.898,0.342,1.274c0.107,0.22,0.247,0.421,0.416,0.594&#10;&#9;&#9;&#9;&#9;&#9;c-0.522,0.399-0.861,1.027-0.861,1.736c0,0.392,0.104,0.758,0.285,1.076c0.068,0.163,0.154,0.316,0.253,0.459&#10;&#9;&#9;&#9;&#9;&#9;c0.046,0.119,0.102,0.232,0.166,0.341c-0.089,0.261-0.139,0.54-0.139,0.83c0,0.093,0.005,0.185,0.015,0.276&#10;&#9;&#9;&#9;&#9;&#9;c-0.158-0.126-0.334-0.227-0.527-0.298c-0.092-0.316-0.244-0.605-0.444-0.856c0.001-0.033,0.01-0.064,0.01-0.097&#10;&#9;&#9;&#9;&#9;&#9;c0-1.097-0.863-1.985-1.947-2.04c0.024-0.117,0.037-0.237,0.037-0.361c0-0.644-0.345-1.202-0.857-1.515&#10;&#9;&#9;&#9;&#9;&#9;c-0.219-0.307-0.534-0.536-0.9-0.654c-0.086-0.112-0.183-0.216-0.287-0.312c-0.018-0.419-0.22-0.786-0.527-1.03&#10;&#9;&#9;&#9;&#9;&#9;c-0.092-0.735-0.588-1.339-1.264-1.583c0.069-0.201,0.115-0.414,0.115-0.639c0-0.747-0.419-1.389-1.031-1.725&#10;&#9;&#9;&#9;&#9;&#9;c0.002-0.041,0.006-0.082,0.006-0.124c0-1.223-0.991-2.214-2.214-2.214c-0.38,0-0.737,0.096-1.05,0.265&#10;&#9;&#9;&#9;&#9;&#9;c-0.037-0.002-0.073-0.005-0.111-0.005c-0.637,0-1.216,0.245-1.652,0.642h-0.31v0.341c-0.308,0.41-0.494,0.919-0.494,1.472&#10;&#9;&#9;&#9;&#9;&#9;c0,0.553,0.185,1.062,0.494,1.472v1.513c-0.602,0.417-0.997,1.111-0.997,1.899c0,0.787,0.395,1.482,0.997,1.899v0.551&#10;&#9;&#9;&#9;&#9;&#9;c-0.008,0.022-0.014,0.046-0.021,0.068c-0.132,0.233-0.214,0.498-0.214,0.785c0,0.054,0.011,0.104,0.016,0.157&#10;&#9;&#9;&#9;&#9;&#9;c-0.161,0.336-0.254,0.712-0.254,1.11c0,0.019,0.003,0.038,0.003,0.057c-0.132,0.278-0.211,0.585-0.211,0.912&#10;&#9;&#9;&#9;&#9;&#9;c0,0.369,0.102,0.71,0.266,1.013c-0.065,0.161-0.103,0.334-0.123,0.512c-0.169,0.331-0.266,0.704-0.266,1.101&#10;&#9;&#9;&#9;&#9;&#9;c0,0.457,0.129,0.884,0.349,1.249c-0.62,0.449-1.026,1.176-1.026,2.001c0,0.573,0.198,1.097,0.526,1.516&#10;&#9;&#9;&#9;&#9;&#9;c-0.214-0.04-0.441-0.065-0.681-0.065c-0.037,0-0.072,0.005-0.109,0.006c0.164-0.131,0.265-0.311,0.265-0.51&#10;&#9;&#9;&#9;&#9;&#9;c0-0.4-0.408-0.723-0.911-0.723c-0.503,0-0.911,0.324-0.911,0.723c0,0.305,0.239,0.565,0.576,0.671&#10;&#9;&#9;&#9;&#9;&#9;c-0.556,0.185-0.927,0.507-0.927,0.874c0,0.575,0.903,1.041,2.016,1.041c0.467,0,0.891-0.085,1.233-0.223&#10;&#9;&#9;&#9;&#9;&#9;c0.099,0.177,0.237,0.331,0.404,0.445v0.475c-0.821,0.395-1.39,1.232-1.39,2.204c0,1.351,1.095,2.447,2.447,2.447&#10;&#9;&#9;&#9;&#9;&#9;c0.614,0,1.174-0.228,1.604-0.602h0.092c0.288,0.332,0.708,0.547,1.182,0.547c0.868,0,1.571-0.703,1.571-1.571&#10;&#9;&#9;&#9;&#9;&#9;c0-0.447-0.189-0.848-0.488-1.134c0.042-0.167,0.07-0.338,0.07-0.517c0-0.3-0.063-0.584-0.175-0.843&#10;&#9;&#9;&#9;&#9;&#9;c0.453-0.465,0.733-1.099,0.733-1.799c0-0.925-0.489-1.735-1.22-2.19c0.065-0.158,0.102-0.331,0.102-0.513&#10;&#9;&#9;&#9;&#9;&#9;c0-0.018-0.003-0.035-0.004-0.053c0.435-0.078,0.766-0.457,0.766-0.915c0-0.407-0.262-0.749-0.625-0.876&#10;&#9;&#9;&#9;&#9;&#9;c0.001-0.022,0.005-0.042,0.005-0.064c0-0.101-0.009-0.2-0.021-0.297c0.579-0.41,0.959-1.083,0.959-1.847&#10;&#9;&#9;&#9;&#9;&#9;c0-0.094-0.008-0.186-0.019-0.277c0.005-0.062,0.009-0.124,0.009-0.186c0-0.731-0.33-1.384-0.849-1.82&#10;&#9;&#9;&#9;&#9;&#9;c0.212-0.273,0.344-0.612,0.344-0.984c0-0.327-0.099-0.63-0.266-0.884c0.038,0.01,0.075,0.02,0.114,0.028&#10;&#9;&#9;&#9;&#9;&#9;c0.089,0.453,0.337,0.845,0.677,1.13c-0.004,0.048-0.015,0.095-0.015,0.144c0,0.646,0.375,1.2,0.915,1.473&#10;&#9;&#9;&#9;&#9;&#9;c0.186,0.446,0.503,0.823,0.903,1.085c-0.102,0.226-0.161,0.474-0.161,0.738c0,0.901,0.663,1.642,1.526,1.776l0.445,0.856&#10;&#9;&#9;&#9;&#9;&#9;c-0.157,0.291-0.255,0.62-0.255,0.974c0,1.042,0.774,1.895,1.777,2.036c-0.017,0.093-0.029,0.187-0.029,0.285&#10;&#9;&#9;&#9;&#9;&#9;c0,0.218,0.048,0.424,0.127,0.613c-0.186,0.126-0.302,0.3-0.302,0.491c0,0.387,0.471,0.701,1.052,0.701&#10;&#9;&#9;&#9;&#9;&#9;c0.093,0,0.181-0.011,0.266-0.025l0.393,0.756c-0.121,0.266-0.193,0.56-0.193,0.871c0,1.033,0.743,1.89,1.723,2.074l0.112,0.215&#10;&#9;&#9;&#9;&#9;&#9;h0.669c0.392,0.478,0.979,0.789,1.646,0.789c1.18,0,2.136-0.956,2.136-2.136c0-0.616-0.264-1.166-0.681-1.556&#10;&#9;&#9;&#9;&#9;&#9;c0.126-0.271,0.204-0.567,0.223-0.881c0.211-0.346,0.335-0.751,0.335-1.186c0-0.124-0.013-0.245-0.032-0.364&#10;&#9;&#9;&#9;&#9;&#9;c0.184-0.334,0.288-0.718,0.288-1.126c0-0.781-0.383-1.471-0.971-1.897c0.18-0.35,0.284-0.746,0.284-1.167&#10;&#9;&#9;&#9;&#9;&#9;c0-0.365-0.078-0.711-0.216-1.025c0.007-0.071,0.011-0.143,0.011-0.216c0-0.448-0.132-0.864-0.358-1.215v-0.233&#10;&#9;&#9;&#9;&#9;&#9;c0.521-0.471,0.85-1.151,0.85-1.909c0-0.205-0.026-0.404-0.072-0.595c0.05-0.189,0.08-0.386,0.08-0.591&#10;&#9;&#9;&#9;&#9;&#9;c0-0.472-0.143-0.911-0.389-1.275c0.206-0.32,0.329-0.7,0.329-1.109c0-0.501-0.187-0.954-0.484-1.311&#10;&#9;&#9;&#9;&#9;&#9;c0.051-0.172,0.087-0.351,0.087-0.539c0-0.181-0.034-0.354-0.081-0.52c0.018-0.121,0.03-0.244,0.03-0.37&#10;&#9;&#9;&#9;&#9;&#9;c0-0.47-0.129-0.909-0.35-1.287v-0.722c0.05,0.003,0.098,0.007,0.149,0.007c0.75,0,1.359-0.285,1.359-0.636&#10;&#9;&#9;&#9;&#9;&#9;c0-0.129-0.083-0.249-0.225-0.35c0.456-0.072,0.795-0.339,0.795-0.659c0-0.098-0.033-0.19-0.089-0.274&#10;&#9;&#9;&#9;&#9;&#9;c0.055-0.12,0.089-0.257,0.089-0.406C597.493,402.046,597.189,401.673,596.814,401.673z M595.565,403.558&#10;&#9;&#9;&#9;&#9;&#9;c-0.051,0-0.099,0.004-0.149,0.007v-0.035c0.042-0.009,0.083-0.017,0.123-0.03c0.016,0.02,0.031,0.041,0.049,0.06&#10;&#9;&#9;&#9;&#9;&#9;C595.58,403.559,595.573,403.558,595.565,403.558z"/>
          <path style="fill:#FFFFFF;" d="M596.967,400.183c-0.29,0-0.526,0.137-0.526,0.307c0,0.169,0.235,0.307,0.526,0.307&#10;&#9;&#9;&#9;&#9;&#9;c0.291,0,0.526-0.137,0.526-0.307C597.493,400.32,597.258,400.183,596.967,400.183z"/>
          <path style="fill:#FFFFFF;" d="M598.545,399.263c-0.097,0-0.175,0.157-0.175,0.351c0,0.194,0.078,0.351,0.175,0.351&#10;&#9;&#9;&#9;&#9;&#9;c0.097,0,0.175-0.157,0.175-0.351C598.721,399.42,598.642,399.263,598.545,399.263z"/>
          <path style="fill:#FFFFFF;" d="M574.283,418.857c-0.157,0-0.285,0.128-0.285,0.285c0,0.157,0.128,0.285,0.285,0.285&#10;&#9;&#9;&#9;&#9;&#9;c0.157,0,0.285-0.128,0.285-0.285C574.568,418.984,574.44,418.857,574.283,418.857z"/>
          <path style="fill:#FFFFFF;" d="M574.93,417.826c0.2,0,0.362-0.162,0.362-0.362c0-0.2-0.162-0.362-0.362-0.362&#10;&#9;&#9;&#9;&#9;&#9;s-0.362,0.162-0.362,0.362C574.568,417.664,574.73,417.826,574.93,417.826z"/>
        </g>
      </g>
      <g transform="matrix(1, 0, 0, 1, 114.521843, -43.68359)">
        <path style="fill:#FFFFFF;" d="M297.121,464.491c0.092-0.227,0.146-0.475,0.146-0.736c0-0.879-0.582-1.614-1.379-1.863&#10;&#9;&#9;&#9;&#9;&#9;c0.218-0.325,0.346-0.715,0.346-1.136c0-0.176-0.029-0.344-0.071-0.507c0.012-0.094,0.019-0.189,0.019-0.286&#10;&#9;&#9;&#9;&#9;&#9;c0-0.999-0.631-1.849-1.516-2.178c0.057-0.181,0.097-0.369,0.097-0.569c0-0.623-0.306-1.171-0.771-1.515&#10;&#9;&#9;&#9;&#9;&#9;c0.236-0.145,0.462-0.3,0.675-0.468c0.003,0,0.006,0,0.01,0c1.331,0,2.41-1.079,2.41-2.41c0-0.298-0.057-0.582-0.155-0.845&#10;&#9;&#9;&#9;&#9;&#9;c0.113-0.335,0.205-0.683,0.275-1.043c0.478-0.385,0.791-0.967,0.791-1.629c0-0.185-0.031-0.361-0.076-0.532&#10;&#9;&#9;&#9;&#9;&#9;c-0.042-0.509-0.279-0.959-0.641-1.277c-0.007-0.059-0.011-0.121-0.019-0.179c0.413-0.367,0.679-0.897,0.679-1.494&#10;&#9;&#9;&#9;&#9;&#9;c0-0.924-0.628-1.693-1.477-1.926c0.103-0.262,0.161-0.547,0.161-0.846c0-1.285-1.042-2.326-2.326-2.326&#10;&#9;&#9;&#9;&#9;&#9;c-0.709,0-1.343,0.318-1.769,0.818c-0.216-0.062-0.438-0.117-0.667-0.164c-0.28-0.986-1.185-1.71-2.261-1.71&#10;&#9;&#9;&#9;&#9;&#9;c-0.991,0-1.838,0.614-2.184,1.483h-0.534c-0.205-0.837-0.954-1.46-1.854-1.46c-0.71,0-1.323,0.391-1.653,0.966&#10;&#9;&#9;&#9;&#9;&#9;c-0.195-0.125-0.425-0.2-0.674-0.2c-0.69,0-1.249,0.559-1.249,1.249c0,0.432,0.219,0.813,0.553,1.037&#10;&#9;&#9;&#9;&#9;&#9;c-0.129,0.2-0.227,0.421-0.29,0.656c-0.653,0.418-1.087,1.148-1.087,1.98c0,0.594,0.222,1.135,0.586,1.549&#10;&#9;&#9;&#9;&#9;&#9;c-0.126,0.263-0.202,0.554-0.202,0.865c0,0.026,0.007,0.051,0.008,0.077c-0.051,0.203-0.082,0.415-0.082,0.634&#10;&#9;&#9;&#9;&#9;&#9;c0,0.064,0.005,0.127,0.009,0.189c-0.278,0.411-0.441,0.906-0.441,1.44c0,0.215,0.027,0.424,0.077,0.624&#10;&#9;&#9;&#9;&#9;&#9;c-0.083-0.005-0.167-0.008-0.251-0.008c-0.008,0-0.016,0.001-0.025,0.001c-0.022-0.579-0.428-1.056-0.973-1.186&#10;&#9;&#9;&#9;&#9;&#9;c0.02-0.073,0.034-0.148,0.034-0.228c0-0.478-0.388-0.866-0.866-0.866c-0.409,0-0.749,0.284-0.84,0.665&#10;&#9;&#9;&#9;&#9;&#9;c-0.038-0.002-0.075-0.007-0.114-0.007c-0.896,0-1.622,0.454-1.622,1.014c0,0.276,0.178,0.527,0.465,0.71&#10;&#9;&#9;&#9;&#9;&#9;c-0.153,0.085-0.246,0.19-0.246,0.304c0,0.284,0.559,0.515,1.249,0.515c0.241,0,0.464-0.029,0.654-0.078&#10;&#9;&#9;&#9;&#9;&#9;c0.007,0.009,0.015,0.018,0.023,0.027c-0.138,0.183-0.217,0.385-0.217,0.599c0,0.811,1.109,1.468,2.477,1.468&#10;&#9;&#9;&#9;&#9;&#9;c0.392,0,0.761-0.055,1.091-0.152c-0.075,0.201-0.12,0.417-0.12,0.644c0,0.031,0.008,0.059,0.009,0.089&#10;&#9;&#9;&#9;&#9;&#9;c-0.084,0.238-0.133,0.493-0.133,0.76c0,0.139,0.014,0.274,0.038,0.407c0,0.012-0.004,0.023-0.004,0.035&#10;&#9;&#9;&#9;&#9;&#9;c0,0.394,0.135,0.754,0.355,1.046c-0.036,0.039-0.072,0.077-0.106,0.118c-0.814,0.425-1.371,1.275-1.371,2.257&#10;&#9;&#9;&#9;&#9;&#9;c0,0.878,0.444,1.652,1.121,2.11c-0.402,0.323-0.664,0.812-0.664,1.367c0,0.652,0.359,1.215,0.886,1.519&#10;&#9;&#9;&#9;&#9;&#9;c-0.04,0.167-0.063,0.34-0.063,0.519c0,0.455,0.136,0.877,0.369,1.231c-0.159,0.234-0.256,0.51-0.286,0.806&#10;&#9;&#9;&#9;&#9;&#9;c-0.194,0.204-0.315,0.478-0.315,0.782c0,0.628,0.509,1.136,1.136,1.136c0.141,0,0.275-0.029,0.4-0.076&#10;&#9;&#9;&#9;&#9;&#9;c0.162,0.05,0.331,0.084,0.509,0.084c0.445,0,0.846-0.171,1.154-0.445c0.278,0.169,0.601,0.271,0.949,0.271&#10;&#9;&#9;&#9;&#9;&#9;c1.016,0,1.84-0.824,1.84-1.84c0-0.819-0.539-1.505-1.279-1.743c0.006-0.068,0.01-0.137,0.01-0.207&#10;&#9;&#9;&#9;&#9;&#9;c0-0.015-0.002-0.03-0.002-0.046c0.908-0.277,1.568-1.121,1.568-2.119c0-0.875-0.509-1.63-1.246-1.99&#10;&#9;&#9;&#9;&#9;&#9;c0.231-0.25,0.375-0.581,0.375-0.948c0-0.349-0.133-0.665-0.344-0.911c0.409-0.248,0.728-0.628,0.898-1.082&#10;&#9;&#9;&#9;&#9;&#9;c0.369,0.221,0.799,0.351,1.26,0.351c0.1,0,0.198-0.008,0.295-0.019c-0.001,0.02-0.003,0.039-0.003,0.059&#10;&#9;&#9;&#9;&#9;&#9;c0,1.414,1.146,2.56,2.56,2.56c0.094,0,0.186-0.006,0.277-0.016c-0.056,0.145-0.09,0.3-0.09,0.465&#10;&#9;&#9;&#9;&#9;&#9;c0,0.582,0.388,1.068,0.917,1.229l0.078,0.178c-0.315,0.389-0.504,0.883-0.504,1.423c0,1.136,0.838,2.073,1.928,2.235&#10;&#9;&#9;&#9;&#9;&#9;c0.001,0.002,0.002,0.004,0.003,0.006c-0.111,0.278-0.173,0.58-0.173,0.897c0,1.34,1.086,2.426,2.426,2.426&#10;&#9;&#9;&#9;&#9;&#9;c1.035,0,1.916-0.649,2.265-1.562h0.012v-0.032c0.095-0.26,0.15-0.54,0.15-0.832&#10;&#9;&#9;&#9;&#9;&#9;C298.508,465.714,297.94,464.881,297.121,464.491z M293.903,450.187c-1.172,0-2.149,0.834-2.371,1.94&#10;&#9;&#9;&#9;&#9;&#9;c-0.045-0.004-0.088-0.014-0.134-0.014c-0.278,0-0.537,0.075-0.767,0.196c-0.432-0.359-0.986-0.575-1.592-0.575&#10;&#9;&#9;&#9;&#9;&#9;c-1.065,0-1.971,0.67-2.328,1.61c-0.338-0.343-0.773-0.59-1.26-0.697v-0.928c0.098-0.217,0.155-0.456,0.155-0.71&#10;&#9;&#9;&#9;&#9;&#9;c0-0.099-0.013-0.195-0.029-0.29c0.043-0.187,0.069-0.381,0.069-0.582c0-0.053-0.005-0.105-0.008-0.157&#10;&#9;&#9;&#9;&#9;&#9;c0.291-0.418,0.463-0.925,0.463-1.473c0-0.634-0.23-1.214-0.609-1.664c0.033-0.145,0.053-0.294,0.053-0.449&#10;&#9;&#9;&#9;&#9;&#9;c0-0.203-0.039-0.394-0.094-0.579v-0.01c0.518-0.428,0.848-1.076,0.848-1.8c0-0.003,0-0.005,0-0.008h2.027&#10;&#9;&#9;&#9;&#9;&#9;c0.367,0.237,0.803,0.376,1.272,0.376c0.23,0,0.451-0.034,0.661-0.096c0.295,0.67,0.962,1.139,1.741,1.139&#10;&#9;&#9;&#9;&#9;&#9;c0.2,0,0.388-0.039,0.569-0.096c0.044-0.004,0.088-0.006,0.131-0.013c-0.006,0.059-0.018,0.117-0.018,0.177&#10;&#9;&#9;&#9;&#9;&#9;c0,0.535,0.233,1.013,0.599,1.349c0.064,0.415,0.319,0.763,0.673,0.958c0.028,0.193,0.049,0.392,0.064,0.6&#10;&#9;&#9;&#9;&#9;&#9;c-0.126,0.258-0.202,0.544-0.212,0.849c-0.022,0.096-0.036,0.195-0.036,0.297c0,0.238,0.068,0.458,0.178,0.652&#10;&#9;&#9;&#9;&#9;&#9;C293.933,450.189,293.918,450.187,293.903,450.187z"/>
        <circle style="fill:#FFFFFF;" cx="277.371" cy="447.379" r="0.263"/>
      </g>
      <g transform="matrix(1, 0, 0, 1, -173.553726, -43.68359)">
        <path style="fill:#FFFFFF;" d="M468.368,441.59c0-0.766-0.621-1.386-1.386-1.386c-0.338,0-0.643,0.126-0.883,0.326&#10;&#9;&#9;&#9;&#9;&#9;c-0.039-0.002-0.076-0.012-0.116-0.012c-0.508,0-0.967,0.205-1.301,0.537c-0.817,0.281-1.408,1.047-1.408,1.959&#10;&#9;&#9;&#9;&#9;&#9;c0,0.22,0.044,0.428,0.107,0.627c-0.862,0.332-1.475,1.166-1.475,2.145c0,0.28,0.053,0.548,0.144,0.796&#10;&#9;&#9;&#9;&#9;&#9;c-0.436,0.446-0.705,1.056-0.705,1.729c0,0.774,0.355,1.464,0.911,1.918c-0.109,0.257-0.17,0.54-0.17,0.838&#10;&#9;&#9;&#9;&#9;&#9;c0,0.02,0.002,0.038,0.003,0.058c-0.311,0.256-0.514,0.639-0.514,1.073c0,0.366,0.144,0.697,0.376,0.946&#10;&#9;&#9;&#9;&#9;&#9;c-0.314,0.179-0.584,0.424-0.792,0.717c-0.111-0.135-0.237-0.256-0.376-0.363c0.003-0.047,0.007-0.094,0.007-0.142&#10;&#9;&#9;&#9;&#9;&#9;c0-0.179-0.023-0.353-0.061-0.52c-0.021-0.814-0.487-1.517-1.166-1.873c0.137-0.263,0.222-0.557,0.222-0.874&#10;&#9;&#9;&#9;&#9;&#9;c0-0.628-0.308-1.181-0.778-1.528c0.357-0.416,0.574-0.955,0.574-1.546c0-1.312-1.064-2.376-2.376-2.376&#10;&#9;&#9;&#9;&#9;&#9;c-0.043,0-0.086,0.004-0.128,0.007c0.049-0.149,0.083-0.304,0.1-0.465c0.262-0.333,0.426-0.749,0.426-1.206&#10;&#9;&#9;&#9;&#9;&#9;c0-1.035-0.806-1.874-1.823-1.946c-0.294-0.145-0.623-0.228-0.973-0.228c-0.569,0-1.087,0.217-1.478,0.571&#10;&#9;&#9;&#9;&#9;&#9;c-0.445,0.186-0.759,0.624-0.759,1.137c0,0.102,0.016,0.199,0.039,0.293c-0.006,0.068-0.01,0.137-0.01,0.207&#10;&#9;&#9;&#9;&#9;&#9;c0,0.272,0.052,0.532,0.142,0.773c0,0.006,0,0.012-0.001,0.017c-0.071,0.025-0.141,0.053-0.209,0.084&#10;&#9;&#9;&#9;&#9;&#9;c-0.028-0.001-0.056-0.004-0.084-0.004c-1.294,0-2.342,1.049-2.342,2.342c0,0.579,0.211,1.108,0.559,1.516&#10;&#9;&#9;&#9;&#9;&#9;c-0.917,0.307-1.579,1.172-1.579,2.192c0,0.815,0.422,1.529,1.059,1.942c0.005,0.028,0.007,0.057,0.013,0.084&#10;&#9;&#9;&#9;&#9;&#9;c-0.715,0.051-1.336,0.441-1.702,1.011c0.092-0.254,0.146-0.526,0.148-0.811c0.066-0.209,0.102-0.431,0.102-0.662&#10;&#9;&#9;&#9;&#9;&#9;c0-0.678-0.308-1.284-0.791-1.687c-0.008-0.209-0.043-0.41-0.103-0.601c0.043-0.155,0.074-0.315,0.074-0.483&#10;&#9;&#9;&#9;&#9;&#9;c0-0.797-0.518-1.466-1.233-1.708c0.767-0.021,1.384-0.716,1.384-1.574c0-0.556-0.26-1.042-0.65-1.323&#10;&#9;&#9;&#9;&#9;&#9;c0.165-0.111,0.268-0.257,0.268-0.419c0-0.345-0.456-0.625-1.019-0.625c-0.114,0-0.222,0.014-0.324,0.035&#10;&#9;&#9;&#9;&#9;&#9;c-0.247-0.305-0.56-0.554-0.923-0.716c-0.014-0.265-0.081-0.514-0.191-0.74c-0.163-0.513-0.585-0.909-1.116-1.026&#10;&#9;&#9;&#9;&#9;&#9;c-0.396-0.424-0.959-0.691-1.586-0.691c-1.199,0-2.172,0.972-2.172,2.172c0,0.996,0.671,1.833,1.585,2.089&#10;&#9;&#9;&#9;&#9;&#9;c0.003,0.003,0.005,0.006,0.008,0.009c-0.029,0.152-0.045,0.308-0.045,0.469c0,0.091,0.005,0.18,0.015,0.268&#10;&#9;&#9;&#9;&#9;&#9;c-0.004,0.015-0.01,0.028-0.013,0.043c-0.139,0.295-0.22,0.623-0.22,0.971c0,0.396,0.102,0.768,0.279,1.092&#10;&#9;&#9;&#9;&#9;&#9;c-0.215,0.345-0.341,0.751-0.341,1.187c0,0.915,0.546,1.7,1.329,2.053c-0.366,0.408-0.591,0.945-0.591,1.537&#10;&#9;&#9;&#9;&#9;&#9;c0,0.821,0.431,1.54,1.078,1.947c-0.321,0.398-0.514,0.903-0.514,1.453c0,1.176,0.876,2.145,2.011,2.295l0.064,0.322&#10;&#9;&#9;&#9;&#9;&#9;c-0.079,0.143-0.132,0.302-0.154,0.471c-0.135,0.238-0.218,0.509-0.218,0.803c0,0.547,0.27,1.028,0.682,1.326&#10;&#9;&#9;&#9;&#9;&#9;c-0.087,0.207-0.135,0.434-0.135,0.672c0,0.071,0.013,0.138,0.021,0.207c-0.221,0.34-0.351,0.744-0.351,1.18&#10;&#9;&#9;&#9;&#9;&#9;c0,0.809,0.444,1.513,1.101,1.885c0.097,0.32,0.276,0.602,0.517,0.822l0.099,0.501c-0.046,0.162-0.078,0.33-0.078,0.506&#10;&#9;&#9;&#9;&#9;&#9;c0,0.008,0.002,0.016,0.003,0.024c-0.038,0.165-0.06,0.336-0.06,0.512c0,1.262,1.023,2.286,2.286,2.286&#10;&#9;&#9;&#9;&#9;&#9;c1.262,0,2.286-1.023,2.286-2.286c0-0.411-0.11-0.796-0.3-1.129l0.176-0.741c0.37-0.362,0.602-0.865,0.602-1.423&#10;&#9;&#9;&#9;&#9;&#9;c0-0.223-0.045-0.434-0.113-0.635l0.199-0.837c0.755-0.428,1.266-1.238,1.266-2.168c0-0.513-0.156-0.99-0.422-1.387l0.43-1.812&#10;&#9;&#9;&#9;&#9;&#9;c0.275-0.208,0.492-0.485,0.621-0.811c0.344-0.337,0.559-0.805,0.559-1.325c0-0.23-0.047-0.447-0.124-0.65&#10;&#9;&#9;&#9;&#9;&#9;c0.003-0.037,0.011-0.073,0.011-0.11c0.68-0.109,1.269-0.486,1.657-1.021c0.153,0.172,0.334,0.315,0.536,0.428&#10;&#9;&#9;&#9;&#9;&#9;c-0.206,0.332-0.326,0.722-0.326,1.142c0,0.219,0.033,0.429,0.093,0.628c0.108,0.566,0.468,1.036,0.956,1.306&#10;&#9;&#9;&#9;&#9;&#9;c0.023,0.147,0.059,0.289,0.11,0.424l0.191,0.836c-0.083,0.196-0.13,0.412-0.13,0.639c0,0.378,0.134,0.722,0.349,0.999&#10;&#9;&#9;&#9;&#9;&#9;c0.024,0.404,0.159,0.775,0.381,1.084c-0.003,0.037-0.011,0.073-0.011,0.11c0,0.298,0.09,0.575,0.243,0.806l0.1,0.436&#10;&#9;&#9;&#9;&#9;&#9;c-0.234,0.36-0.372,0.789-0.372,1.251c0,0.438,0.125,0.846,0.337,1.194c-0.016,0.107-0.027,0.215-0.027,0.326&#10;&#9;&#9;&#9;&#9;&#9;c0,0.691,0.322,1.307,0.823,1.707c0.098,0.147,0.211,0.284,0.337,0.407c-0.066,0.174-0.107,0.362-0.107,0.56&#10;&#9;&#9;&#9;&#9;&#9;c0,0.464,0.204,0.877,0.523,1.166l0.023,0.099h0.098c0.262,0.194,0.583,0.312,0.934,0.312s0.672-0.118,0.934-0.312h1.026&#10;&#9;&#9;&#9;&#9;&#9;l0.168-0.843c0.168-0.272,0.269-0.59,0.269-0.934c0-0.095-0.014-0.186-0.028-0.277l0.051-0.256&#10;&#9;&#9;&#9;&#9;&#9;c0.224-0.366,0.357-0.794,0.366-1.252c0.432-0.414,0.702-0.995,0.702-1.641c0-0.019-0.002-0.036-0.003-0.055&#10;&#9;&#9;&#9;&#9;&#9;c0.007-0.072,0.011-0.144,0.011-0.217c0-0.36-0.088-0.698-0.24-0.999c0.004-0.024,0.005-0.049,0.008-0.074l0.141-0.709&#10;&#9;&#9;&#9;&#9;&#9;c0.06-0.104,0.113-0.214,0.157-0.327c0.62-0.45,1.025-1.179,1.025-2.004c0-0.515-0.157-0.993-0.426-1.389&#10;&#9;&#9;&#9;&#9;&#9;c0.031-0.028,0.065-0.053,0.094-0.083c0.523-0.429,0.857-1.08,0.857-1.809c0-0.346-0.077-0.672-0.211-0.967&#10;&#9;&#9;&#9;&#9;&#9;c-0.038-0.098-0.079-0.194-0.128-0.286l0.291-1.459c0.442-0.392,0.721-0.963,0.721-1.6c0-0.303-0.064-0.59-0.177-0.852&#10;&#9;&#9;&#9;&#9;&#9;c0.127-0.179,0.22-0.383,0.268-0.605c0.413-0.326,0.684-0.825,0.684-1.392c0-0.277-0.069-0.536-0.182-0.77&#10;&#9;&#9;&#9;&#9;&#9;c0.036-0.132,0.061-0.268,0.061-0.411c0-0.088-0.012-0.173-0.026-0.258c0.241-0.254,0.392-0.595,0.392-0.973&#10;&#9;&#9;&#9;&#9;&#9;c0-0.092-0.01-0.182-0.027-0.269c0.563-0.345,0.942-0.96,0.942-1.668c0-0.465-0.168-0.886-0.438-1.222&#10;&#9;&#9;&#9;&#9;&#9;C468.171,442.395,468.368,442.018,468.368,441.59z M446.026,446.914l-0.009-0.048c0.036,0.019,0.073,0.035,0.111,0.05&#10;&#9;&#9;&#9;&#9;&#9;c-0.02-0.001-0.038-0.006-0.058-0.006C446.054,446.91,446.041,446.914,446.026,446.914z M448.132,453.798&#10;&#9;&#9;&#9;&#9;&#9;c-0.027-0.013-0.053-0.027-0.08-0.039c-0.005-0.022-0.014-0.041-0.02-0.063c0.072-0.085,0.136-0.177,0.196-0.272&#10;&#9;&#9;&#9;&#9;&#9;C448.186,453.545,448.153,453.669,448.132,453.798z"/>
        <path style="fill:#FFFFFF;" d="M446.215,442.26c0.333,0,0.603-0.27,0.603-0.602c0-0.333-0.27-0.603-0.603-0.603&#10;&#9;&#9;&#9;&#9;&#9;c-0.333,0-0.603,0.27-0.603,0.603C445.612,441.991,445.882,442.26,446.215,442.26z"/>
        <path style="fill:#FFFFFF;" d="M447.288,440.463c0.2,0,0.362-0.162,0.362-0.362c0-0.2-0.162-0.362-0.362-0.362&#10;&#9;&#9;&#9;&#9;&#9;c-0.2,0-0.362,0.162-0.362,0.362C446.927,440.302,447.089,440.463,447.288,440.463z"/>
      </g>
    </g>
  </g>
</svg>