<?xml version="1.0" encoding="utf-8"?>
<svg viewBox="0 0 500 500" xmlns="http://www.w3.org/2000/svg">
  <defs/>
  <g id="g-3" transform="matrix(0.586016, 0, 0, 1, 0.147623, -0.000065)" style="">
    <linearGradient id="gradient-1" gradientUnits="userSpaceOnUse" x1="375" y1="631.849" x2="375" y2="131.849" gradientTransform="matrix(1.136954, 0, 0, 1, 0, 0)">
      <stop offset="0" style="stop-color:#55d0ff"/>
      <stop offset="1" style="stop-color:#00acdf"/>
    </linearGradient>
    <rect style="fill: url('#gradient-1');" width="852.715" height="500" rx="123.075" ry="123.075"/>
  </g>
  <g id="g-1" transform="matrix(11.108127, 0, 0, 10.719986, -3628.318848, -4209.759766)" style="">
    <path style="fill:#FFFFFF;" d="M369.832,420.92c0-0.719-0.313-1.364-0.808-1.811c0.373-0.436,0.6-1.002,0.6-1.621&#10;&#9;&#9;&#9;&#9;&#9;c0-0.547-0.178-1.051-0.475-1.462c0.012-0.1,0.021-0.202,0.021-0.305c0-1.38-1.119-2.499-2.499-2.499&#10;&#9;&#9;&#9;&#9;&#9;c-0.596,0-1.143,0.209-1.572,0.558c-0.167-0.037-0.34-0.059-0.518-0.059c-0.286,0-0.559,0.053-0.813,0.147&#10;&#9;&#9;&#9;&#9;&#9;c-0.203-0.093-0.424-0.148-0.656-0.171c-0.326-0.154-0.69-0.242-1.074-0.242c-0.478,0-0.924,0.135-1.305,0.366&#10;&#9;&#9;&#9;&#9;&#9;c-0.229-0.086-0.475-0.139-0.734-0.139c-1.161,0-2.101,0.941-2.101,2.102c0,1.161,0.941,2.101,2.101,2.101&#10;&#9;&#9;&#9;&#9;&#9;c0.118,0,0.231-0.016,0.343-0.035c0.448,0.407,1.042,0.657,1.695,0.657c0.497,0,0.959-0.146,1.349-0.393&#10;&#9;&#9;&#9;&#9;&#9;c0.351,0.206,0.758,0.327,1.194,0.327c0.064,0,0.127-0.005,0.19-0.01v1.029c-0.242,0.392-0.383,0.853-0.383,1.348&#10;&#9;&#9;&#9;&#9;&#9;c0,0.444,0.112,0.861,0.309,1.225c0.007,0.143,0.033,0.28,0.074,0.412v0.092c-0.876,0.246-1.553,0.967-1.733,1.869&#10;&#9;&#9;&#9;&#9;&#9;c-0.401-0.368-0.934-0.595-1.522-0.595c-0.839,0-1.569,0.459-1.957,1.139c-0.046-0.003-0.091-0.014-0.138-0.014&#10;&#9;&#9;&#9;&#9;&#9;c-0.25,0-0.488,0.051-0.708,0.137c-0.149-0.16-0.331-0.287-0.537-0.369c-0.211-0.137-0.459-0.218-0.725-0.235&#10;&#9;&#9;&#9;&#9;&#9;c-0.086-0.991-0.819-1.796-1.775-1.989c-0.025-0.42-0.157-0.811-0.371-1.146c0.083-0.219,0.134-0.454,0.134-0.702&#10;&#9;&#9;&#9;&#9;&#9;c0-0.208-0.041-0.405-0.101-0.594c0.515-0.357,0.853-0.951,0.853-1.625c0-0.721-0.39-1.346-0.966-1.691&#10;&#9;&#9;&#9;&#9;&#9;c0.016-0.1,0.031-0.201,0.031-0.306c0-0.353-0.1-0.68-0.263-0.967c0.451-0.204,0.766-0.655,0.766-1.181&#10;&#9;&#9;&#9;&#9;&#9;c0-0.138-0.027-0.269-0.068-0.394c0.681-0.382,1.142-1.11,1.142-1.947c0-0.489-0.159-0.94-0.425-1.307&#10;&#9;&#9;&#9;&#9;&#9;c0.384-0.405,0.62-0.95,0.62-1.551c0-0.321-0.068-0.625-0.188-0.901c0.282-0.404,0.448-0.895,0.448-1.425&#10;&#9;&#9;&#9;&#9;&#9;c0-0.451-0.121-0.873-0.331-1.239c0.082-0.105,0.156-0.217,0.219-0.335c0.08,0.017,0.164,0.026,0.249,0.026&#10;&#9;&#9;&#9;&#9;&#9;c0.505,0,0.937-0.308,1.121-0.746c0.002,0,0.003,0,0.005,0c0.336,0.192,0.723,0.303,1.137,0.303c0.272,0,0.531-0.05,0.773-0.136&#10;&#9;&#9;&#9;&#9;&#9;c0.117,0.025,0.238,0.036,0.36,0.041c0.171,0.138,0.371,0.241,0.595,0.285c0.222,0.298,0.517,0.537,0.865,0.682&#10;&#9;&#9;&#9;&#9;&#9;c0.072,0.164,0.173,0.312,0.294,0.44c0,0.019-0.003,0.037-0.003,0.055c0,0.859,0.466,1.607,1.158,2.011&#10;&#9;&#9;&#9;&#9;&#9;c0.214,0.925,1.038,1.617,2.029,1.617c0.308,0,0.599-0.071,0.862-0.191c0.182,0.101,0.388,0.163,0.611,0.163&#10;&#9;&#9;&#9;&#9;&#9;c0.702,0,1.271-0.569,1.271-1.271c0-0.335-0.133-0.638-0.345-0.865c0.108-0.235,0.173-0.495,0.173-0.771&#10;&#9;&#9;&#9;&#9;&#9;c0-0.597-0.287-1.121-0.726-1.46c0-0.014,0.004-0.027,0.004-0.041c0-0.954-0.724-1.73-1.652-1.83&#10;&#9;&#9;&#9;&#9;&#9;c-0.073-0.079-0.141-0.163-0.217-0.239c-0.328-0.322-0.688-0.603-1.074-0.85c-0.211-0.255-0.475-0.465-0.785-0.596&#10;&#9;&#9;&#9;&#9;&#9;c-0.32-0.532-0.897-0.891-1.563-0.891c-0.029,0-0.057,0.007-0.086,0.009c-0.363-0.294-0.82-0.478-1.323-0.478&#10;&#9;&#9;&#9;&#9;&#9;c-0.035,0-0.068,0.009-0.103,0.01c-0.331-0.185-0.712-0.292-1.119-0.292c-0.312,0-0.609,0.063-0.88,0.175&#10;&#9;&#9;&#9;&#9;&#9;c-0.314-0.177-0.676-0.278-1.062-0.278c-0.903,0-1.677,0.551-2.005,1.335c-0.208-0.059-0.426-0.092-0.652-0.092&#10;&#9;&#9;&#9;&#9;&#9;c-1.325,0-2.398,1.074-2.398,2.399c0,0.196,0.026,0.386,0.07,0.568c-0.078-0.016-0.158-0.025-0.241-0.025&#10;&#9;&#9;&#9;&#9;&#9;c-0.651,0-1.178,0.527-1.178,1.178c0,0.307,0.12,0.585,0.313,0.794c-0.66,0.435-1.096,1.181-1.096,2.03&#10;&#9;&#9;&#9;&#9;&#9;c0,0.324,0.065,0.633,0.18,0.916c-0.005,0.046-0.014,0.09-0.014,0.137c0,0.345,0.132,0.657,0.344,0.898&#10;&#9;&#9;&#9;&#9;&#9;c-0.002,0.023-0.004,0.046-0.006,0.068c-0.65,0.401-1.085,1.118-1.085,1.939c0,0.56,0.203,1.073,0.538,1.469&#10;&#9;&#9;&#9;&#9;&#9;c-0.203,0.312-0.323,0.682-0.323,1.082c0,0.485,0.18,0.923,0.468,1.268c-0.088,0.196-0.139,0.412-0.139,0.641&#10;&#9;&#9;&#9;&#9;&#9;c0,0.439,0.18,0.834,0.469,1.12c0.003,0.121,0.009,0.241,0.015,0.36c-0.049,0.173-0.084,0.351-0.084,0.54&#10;&#9;&#9;&#9;&#9;&#9;c0,0.106,0.015,0.208,0.031,0.31c-0.179,0.309-0.289,0.663-0.289,1.046c0,0.534,0.206,1.017,0.535,1.388&#10;&#9;&#9;&#9;&#9;&#9;c-0.206,0.355-0.326,0.765-0.326,1.205c0,0.281,0.051,0.55,0.139,0.801c-0.028,0.15-0.044,0.305-0.044,0.463&#10;&#9;&#9;&#9;&#9;&#9;c0,0.953,0.534,1.778,1.317,2.201c-0.123,0.155-0.198,0.336-0.198,0.532c0,0.472,0.416,0.865,0.978,0.981&#10;&#9;&#9;&#9;&#9;&#9;c-0.045,0.077-0.084,0.162-0.118,0.254c-0.186-0.093-0.414-0.15-0.663-0.15c-0.617,0-1.118,0.339-1.118,0.756&#10;&#9;&#9;&#9;&#9;&#9;s0.5,0.756,1.118,0.756c0.209,0,0.403-0.041,0.57-0.109c0.109,0.595,0.425,1.029,0.801,1.029c0.467,0,0.846-0.662,0.846-1.479&#10;&#9;&#9;&#9;&#9;&#9;c0-0.37-0.08-0.704-0.209-0.964c0.205,0.089,0.429,0.142,0.667,0.142c0.266,0,0.514-0.066,0.738-0.175&#10;&#9;&#9;&#9;&#9;&#9;c0.208,1.018,1.108,1.784,2.187,1.784c0.592,0,1.128-0.232,1.528-0.608c0.003,0,0.005,0.001,0.008,0.001&#10;&#9;&#9;&#9;&#9;&#9;c0.314,0,0.607-0.081,0.87-0.213c0.357,0.309,0.816,0.502,1.325,0.502c0.797,0,1.481-0.463,1.814-1.132&#10;&#9;&#9;&#9;&#9;&#9;c0.063,0.01,0.127,0.019,0.193,0.019c0.369,0,0.694-0.173,0.909-0.438c0.214,0.09,0.45,0.14,0.697,0.14&#10;&#9;&#9;&#9;&#9;&#9;c0.188,0,0.365-0.037,0.535-0.09c0.156,0.032,0.318,0.049,0.484,0.049c1.328,0,2.404-1.076,2.404-2.404&#10;&#9;&#9;&#9;&#9;&#9;c0-0.318-0.063-0.62-0.175-0.897c0.182-0.207,0.297-0.476,0.297-0.774c0-0.21-0.059-0.404-0.156-0.575&#10;&#9;&#9;&#9;&#9;&#9;C369.342,422.606,369.832,421.821,369.832,420.92z"/>
    <path style="fill:#FFFFFF;" d="M355.718,430.633c-0.209,0-0.378,0.169-0.378,0.378s0.169,0.378,0.378,0.378&#10;&#9;&#9;&#9;&#9;&#9;s0.378-0.169,0.378-0.378S355.927,430.633,355.718,430.633z"/>
    <path style="fill:#FFFFFF;" d="M355.143,429.448c-0.109,0-0.198,0.089-0.198,0.198c0,0.109,0.089,0.198,0.198,0.198&#10;&#9;&#9;&#9;&#9;&#9;c0.109,0,0.198-0.089,0.198-0.198C355.34,429.537,355.252,429.448,355.143,429.448z"/>
  </g>
  <g id="g-2" transform="matrix(11.353052, 0, 0, 11.187222, -1698.618042, -4398.341309)" style="">
    <path style="fill:#FFFFFF;" d="M171.791,426.923c0.169-0.21,0.274-0.495,0.274-0.811c0-0.512-0.275-0.941-0.655-1.099&#10;&#9;&#9;&#9;&#9;&#9;c-0.054-0.181-0.169-0.335-0.324-0.435c0.539-0.738,0.482-1.775-0.184-2.441c-0.202-0.202-0.441-0.344-0.694-0.435&#10;&#9;&#9;&#9;&#9;&#9;c0.013-0.041,0.024-0.083,0.035-0.125c0.022,0.003,0.044,0.01,0.066,0.01c0.383,0,0.693-0.45,0.693-1.006&#10;&#9;&#9;&#9;&#9;&#9;c0-0.555-0.31-1.006-0.693-1.006c-0.111,0-0.214,0.041-0.307,0.108c-0.073-0.128-0.155-0.25-0.248-0.363&#10;&#9;&#9;&#9;&#9;&#9;c0.226-0.183,0.374-0.459,0.374-0.772c0-0.351-0.184-0.656-0.458-0.832c0.06-0.159,0.097-0.329,0.097-0.509&#10;&#9;&#9;&#9;&#9;&#9;c0-0.16-0.032-0.312-0.081-0.456c0.037-0.156,0.064-0.315,0.064-0.483c0-0.537-0.204-1.02-0.532-1.392&#10;&#9;&#9;&#9;&#9;&#9;c0.057-0.189,0.097-0.385,0.097-0.593c0-1.051-0.788-1.91-1.804-2.04c0.02-0.085,0.031-0.173,0.036-0.262&#10;&#9;&#9;&#9;&#9;&#9;c0.27-0.252,0.442-0.608,0.442-1.006c0-0.088-0.01-0.172-0.025-0.255c0.395-0.162,0.674-0.55,0.674-1.003&#10;&#9;&#9;&#9;&#9;&#9;c0-0.599-0.486-1.085-1.085-1.085c-0.059,0-0.116,0.008-0.173,0.017c0.158-0.297,0.248-0.636,0.248-0.996&#10;&#9;&#9;&#9;&#9;&#9;c0-1.083-0.806-1.976-1.85-2.117c-0.049-0.124-0.114-0.241-0.195-0.345c0.087-0.195,0.137-0.409,0.137-0.636&#10;&#9;&#9;&#9;&#9;&#9;c0-0.246-0.059-0.477-0.16-0.683c-0.005-0.307-0.116-0.587-0.295-0.811c0.135-0.223,0.216-0.483,0.216-0.763&#10;&#9;&#9;&#9;&#9;&#9;c0-0.827-0.671-1.498-1.498-1.498c-0.216,0-0.419,0.047-0.604,0.129c-0.084-0.256-0.322-0.442-0.606-0.442&#10;&#9;&#9;&#9;&#9;&#9;c-0.268,0-0.496,0.164-0.592,0.397c-0.14-0.04-0.285-0.068-0.438-0.068c-0.097,0-0.191,0.012-0.283,0.029&#10;&#9;&#9;&#9;&#9;&#9;c-0.092-0.016-0.186-0.029-0.283-0.029c-0.926,0-1.676,0.75-1.676,1.676c0,0.263,0.066,0.508,0.173,0.729&#10;&#9;&#9;&#9;&#9;&#9;c-0.452,0.026-0.811,0.336-0.811,0.718c0,0.189,0.089,0.36,0.232,0.489c-0.283,0.221-0.468,0.562-0.468,0.948&#10;&#9;&#9;&#9;&#9;&#9;c0,0.272,0.093,0.521,0.245,0.723c-0.557,0.237-0.975,0.728-1.121,1.326c-0.857,0.157-1.507,0.905-1.507,1.807&#10;&#9;&#9;&#9;&#9;&#9;c0,0.55,0.246,1.038,0.629,1.376c-0.373,0.263-0.629,0.77-0.629,1.361c0,0.27,0.058,0.52,0.151,0.742&#10;&#9;&#9;&#9;&#9;&#9;c-0.675,0.125-1.186,0.714-1.186,1.425c0,0.21,0.048,0.408,0.129,0.587c-0.653,0.055-1.157,0.39-1.157,0.8&#10;&#9;&#9;&#9;&#9;&#9;c0,0.338,0.343,0.627,0.83,0.749c-0.341,0.333-0.572,0.779-0.62,1.283c-0.595,0.301-1.006,0.911-1.006,1.623&#10;&#9;&#9;&#9;&#9;&#9;c0,0.745,0.452,1.375,1.092,1.658l-0.119,0.371c-0.416,0.18-0.71,0.588-0.71,1.07c0,0.029,0.006,0.056,0.008,0.084&#10;&#9;&#9;&#9;&#9;&#9;c-0.951,0.401-1.619,1.342-1.619,2.44c0,0.206,0.026,0.405,0.07,0.597c-0.472,0.152-0.826,0.77-0.826,1.51&#10;&#9;&#9;&#9;&#9;&#9;c0,0.855,0.471,1.548,1.052,1.548c0.056,0,0.11-0.012,0.164-0.024c0.274,0.306,0.711,0.507,1.207,0.507&#10;&#9;&#9;&#9;&#9;&#9;c0.487,0,0.915-0.194,1.19-0.489c0.141,0.094,0.31,0.15,0.492,0.15c0.428,0,0.785-0.305,0.866-0.709&#10;&#9;&#9;&#9;&#9;&#9;c0.006,0,0.012,0.002,0.018,0.002c0.586,0,1.06-0.475,1.06-1.06c0-0.299-0.125-0.568-0.324-0.761&#10;&#9;&#9;&#9;&#9;&#9;c0.207-0.377,0.324-0.809,0.324-1.269c0-0.252-0.037-0.494-0.103-0.725c0.505-0.151,0.859-0.493,0.859-0.893&#10;&#9;&#9;&#9;&#9;&#9;c0-0.097-0.027-0.189-0.066-0.277c0.357-0.172,0.608-0.583,0.608-1.064c0-0.066-0.007-0.131-0.017-0.194&#10;&#9;&#9;&#9;&#9;&#9;c0.279-0.025,0.535-0.124,0.748-0.283c0.24,0.464,0.803,0.789,1.461,0.789c0.473,0,0.893-0.172,1.183-0.439&#10;&#9;&#9;&#9;&#9;&#9;c0.154,0.042,0.313,0.072,0.48,0.072c0.047,0,0.091-0.01,0.137-0.014c0.421,0.444,1.014,0.722,1.673,0.722&#10;&#9;&#9;&#9;&#9;&#9;c0.475,0,0.917-0.144,1.284-0.39c0.062,0.117,0.134,0.228,0.213,0.333c-0.306,0.215-0.504,0.53-0.504,0.885&#10;&#9;&#9;&#9;&#9;&#9;c0,0.646,0.638,1.169,1.425,1.169c0.319,0,0.608-0.091,0.845-0.237l0.064,0.212c-0.732,0.064-1.305,0.564-1.305,1.179&#10;&#9;&#9;&#9;&#9;&#9;c0,0.5,0.379,0.927,0.914,1.104c-0.066,0.13-0.104,0.274-0.104,0.425c0,0.586,0.547,1.06,1.222,1.06&#10;&#9;&#9;&#9;&#9;&#9;c0.107,0,0.208-0.016,0.307-0.038c0.287,0.159,0.612,0.257,0.962,0.257c0.218,0,0.424-0.044,0.62-0.108&#10;&#9;&#9;&#9;&#9;&#9;c0.246,0.154,0.58,0.25,0.949,0.25c0.753,0,1.364-0.396,1.364-0.883C172.55,427.365,172.239,427.068,171.791,426.923z&#10;&#9;&#9;&#9;&#9;&#9; M161.494,408.39c0.003,0.002,0.005,0.004,0.008,0.007c-0.004,0.03-0.008,0.06-0.009,0.091&#10;&#9;&#9;&#9;&#9;&#9;c-0.008-0.005-0.016-0.009-0.025-0.013C161.477,408.446,161.486,408.418,161.494,408.39z M165.068,418.014&#10;&#9;&#9;&#9;&#9;&#9;c-0.243-0.087-0.503-0.136-0.775-0.136c-0.177,0-0.348,0.022-0.514,0.059c-0.163-0.232-0.432-0.384-0.737-0.384&#10;&#9;&#9;&#9;&#9;&#9;c-0.338,0-0.63,0.189-0.784,0.464c-0.274-0.165-0.591-0.265-0.934-0.265c-0.274,0-0.531,0.065-0.764,0.173&#10;&#9;&#9;&#9;&#9;&#9;c-0.108-0.256-0.292-0.449-0.513-0.529c0.131-0.166,0.209-0.363,0.209-0.575c0-0.333-0.191-0.626-0.482-0.819&#10;&#9;&#9;&#9;&#9;&#9;c0.152-0.18,0.247-0.409,0.247-0.663c0-0.078-0.01-0.153-0.026-0.226c0.069,0.016,0.14,0.025,0.213,0.025&#10;&#9;&#9;&#9;&#9;&#9;c0.536,0,0.97-0.435,0.97-0.97c0-0.458-0.318-0.84-0.745-0.941c0.235-0.192,0.389-0.507,0.389-0.865&#10;&#9;&#9;&#9;&#9;&#9;c0-0.156-0.031-0.303-0.083-0.436c0.12,0.061,0.254,0.099,0.398,0.099c0.486,0,0.879-0.394,0.879-0.879&#10;&#9;&#9;&#9;&#9;&#9;c0-0.122-0.025-0.238-0.07-0.343c0.057-0.043,0.11-0.093,0.158-0.15c0.124,0.045,0.257,0.074,0.397,0.074&#10;&#9;&#9;&#9;&#9;&#9;c0.179,0,0.347-0.043,0.499-0.115c0.09,0.1,0.198,0.183,0.32,0.244c-0.191,0.222-0.311,0.51-0.311,0.829&#10;&#9;&#9;&#9;&#9;&#9;c0,0.488,0.275,0.906,0.673,1.116c0.018,0.503,0.234,0.934,0.549,1.171c-0.048,0.102-0.077,0.214-0.077,0.334&#10;&#9;&#9;&#9;&#9;&#9;c0,0.373,0.261,0.683,0.609,0.763c-0.153,0.186-0.248,0.436-0.248,0.713c0,0.483,0.287,0.885,0.674,1.001&#10;&#9;&#9;&#9;&#9;&#9;c-0.114,0.236-0.183,0.497-0.183,0.777C165.003,417.718,165.029,417.868,165.068,418.014z"/>
    <ellipse style="fill:#FFFFFF;" cx="169.016" cy="407.759" rx="0.904" ry="0.632"/>
    <ellipse style="fill:#FFFFFF;" cx="167.684" cy="405.779" rx="0.427" ry="0.23"/>
    <path style="fill:#FFFFFF;" d="M152.868,414.155c0.252,0,0.457-0.204,0.457-0.457s-0.204-0.457-0.457-0.457&#10;&#9;&#9;&#9;&#9;&#9;c-0.252,0-0.457,0.204-0.457,0.457S152.616,414.155,152.868,414.155z"/>
  </g>
</svg>